<?xml version="1.0" standalone="no"?>
<!DOCTYPE svg PUBLIC "-//W3C//DTD SVG 20010904//EN"
 "http://www.w3.org/TR/2001/REC-SVG-20010904/DTD/svg10.dtd">
<svg version="1.0" xmlns="http://www.w3.org/2000/svg"
 width="474.000000pt" height="474.000000pt" viewBox="0 0 474.000000 474.000000"
 preserveAspectRatio="xMidYMid meet">

<g transform="translate(0.000000,474.000000) scale(0.100000,-0.100000)"
fill="#000000" stroke="none">
<path d="M2360 4734 c0 -7 -4 -56 -10 -110 -5 -55 -16 -225 -25 -379 -29 -521
-72 -982 -111 -1210 -25 -146 -65 -306 -78 -310 -6 -2 -44 -6 -83 -9 l-73 -5
-15 52 c-30 107 -63 337 -105 729 -13 124 -70 743 -70 766 -1 15 -2 15 -10 2
-5 -9 -23 -157 -40 -330 -57 -585 -106 -942 -155 -1155 -35 -148 -31 -143
-110 -171 -39 -13 -73 -24 -77 -24 -7 0 -40 96 -62 185 -25 99 -63 344 -101
642 -19 155 -39 292 -44 305 l-9 23 -6 -25 c-19 -82 -127 -1269 -126 -1389 0
-23 10 -30 89 -64 306 -131 612 -405 811 -726 221 -356 341 -771 390 -1351 12
-146 18 -180 31 -180 5 0 9 3 9 8 0 4 9 101 20 217 23 233 38 341 75 513 152
711 540 1242 1101 1509 l115 54 -5 52 c-3 29 -13 147 -22 262 -21 287 -81 943
-95 1037 -19 133 -24 114 -79 -327 -39 -309 -73 -504 -111 -635 -17 -57 -32
-106 -35 -109 -9 -9 -146 45 -155 61 -15 28 -57 207 -78 333 -30 174 -76 553
-111 915 -18 173 -35 331 -39 350 l-8 35 -6 -40 c-4 -22 -16 -143 -27 -270
-57 -640 -103 -1017 -147 -1192 l-15 -63 -77 7 c-42 3 -80 9 -85 13 -4 5 -19
50 -32 102 -64 251 -112 685 -149 1343 -19 351 -35 536 -46 555 -4 8 -9 10 -9
4z"/>
</g>
</svg>
